# Blender 4.5.2 LTS
# www.blender.org
mtllib grass_patch.mtl
o Plane
v 0.158825 1.000000 0.000000
v -0.158825 1.000000 0.000000
v 0.200000 0.000000 0.000000
v -0.200000 0.000000 0.000000
v 0.095269 2.000000 0.000000
v -0.095269 2.000000 0.000000
v 0.498666 0.810679 0.000000
v 0.215066 0.842843 0.000000
v 0.440200 -0.033140 0.000000
v 0.083078 0.007362 0.000000
v 0.537150 1.656764 0.000000
v 0.367037 1.676057 0.000000
v -0.264789 0.749552 0.000000
v -0.542565 0.715356 0.000000
v -0.137956 0.016194 0.000000
v -0.487745 -0.026867 0.000000
v -0.411194 1.480501 0.000000
v -0.577814 1.459989 0.000000
vn -0.0000 -0.0000 1.0000
vt 0.000000 0.000000
vt 1.000000 0.000000
vt 1.000000 1.000000
vt 0.000000 1.000000
s 0
f 4/1/1 3/2/1 1/3/1 2/4/1
f 2/4/1 1/3/1 5/3/1 6/4/1
f 10/1/1 9/2/1 7/3/1 8/4/1
f 8/4/1 7/3/1 11/3/1 12/4/1
f 16/1/1 15/2/1 13/3/1 14/4/1
f 14/4/1 13/3/1 17/3/1 18/4/1
