# Blender 4.2.0
# www.blender.org
mtllib grass_blade.mtl
o Plane
v 0.623728 0.000000 0.000000
v -0.623728 0.000000 0.000000
v 0.623728 2.858742 -0.000000
v -0.623728 2.858742 -0.000000
v -0.493445 5.693764 -0.000000
v 0.493445 5.693764 -0.000000
v 0.000000 0.000000 -0.623728
v 0.000000 -0.000000 0.623728
v -0.000000 2.858741 -0.623728
v -0.000000 2.858741 0.623728
v -0.000000 5.693763 0.493445
v -0.000000 5.693763 -0.493445
vn -0.0000 -0.0000 -1.0000
vn -1.0000 -0.0000 -0.0000
vt 0.000000 0.500000
vt 0.000000 0.000000
vt 1.000000 0.000000
vt 1.000000 0.500000
vt 0.997842 1.000000
vt 0.000000 1.000000
s 0
f 3/1/1 1/2/1 2/3/1 4/4/1
f 4/4/1 5/5/1 6/6/1 3/1/1
f 9/1/2 7/2/2 8/3/2 10/4/2
f 10/4/2 11/5/2 12/6/2 9/1/2
