# Blender 4.5.2 LTS
# www.blender.org
mtllib grass_blade.mtl
o Plane
v 0.014976 2.000000 0.000000
v 0.124800 0.000000 -0.000000
v -0.014976 2.000000 0.000000
v -0.124800 0.000000 0.000000
v 0.124800 1.000000 -0.000000
v -0.124800 1.000000 0.000000
v 0.124800 0.500000 -0.000000
v -0.124800 0.500000 0.000000
v -0.099840 1.500000 0.000000
v 0.099840 1.500000 -0.000000
vn -0.0000 -0.0000 -1.0000
vt 0.000000 0.250000
vt 0.000000 0.000000
vt 1.000000 0.000000
vt 1.000000 0.250000
vt 0.000000 0.750000
vt 0.000000 0.500000
vt 1.000000 0.500000
vt 1.000000 0.750000
vt 0.000000 1.000000
vt 1.000000 1.000000
s 0
f 7/1/1 2/2/1 4/3/1 8/4/1
f 10/5/1 5/6/1 6/7/1 9/8/1
f 5/6/1 7/1/1 8/4/1 6/7/1
f 1/9/1 10/5/1 9/8/1 3/10/1
