# Blender 4.5.2 LTS
# www.blender.org
mtllib grass_blade.mtl
o Plane
v 0.123136 0.000000 -0.000000
v -0.123136 0.000000 0.000000
v 0.113916 1.085051 -0.000000
v -0.113916 1.085051 0.000000
v -0.091157 2.138647 0.000000
v 0.091157 2.138647 -0.000000
v 0.000000 3.252723 0.000000
vn -0.0000 -0.0000 -1.0000
vt 0.000000 0.250000
vt 0.000000 0.000000
vt 1.000000 0.000000
vt 1.000000 0.250000
vt 0.000000 0.750000
vt 1.000000 0.750000
s 0
f 3/1/1 1/2/1 2/3/1 4/4/1
f 6/5/1 3/1/1 4/4/1 5/6/1
f 6/5/1 5/6/1 7/5/1
